<svg viewBox="0 0 500 500" xmlns="http://www.w3.org/2000/svg">
	<path fill="gray"
		d="M250 0a250 250 0 1 0 .2 500.2A250 250 0 0 0 250 0m0 10a240 240 0 1 1-96.5 459.8l.1-51.1.2-55.5h-4c-2.3 0-4.2-.2-4.5-.4s-1.6-.4-3-.3c-4.2.1-10 .6-10.3.8q-.3 0-.3-.3t-.4-.1q-.5.3-1.2.3c-1 .1-4.2.3-4.7.2a29 29 0 0 1-.4-8l-.1-9c-.2-.7-.5-.2-1.9 2.6-.9 2-1.9 3.7-2.2 4q-.5.3-.6 1c0 .6-4.5 5.3-5.5 5.7-.4 0-1.5.8-2.3 1.6q-1.6 1.2-2 1.4-.4 0-1 .6-.7.8-1.3 0c-.4-.5-.4-.7 0-1.7l1-1.7q.6-.5.5-1t.5-1 .8-1.3c0-.3 1-1.6 2.3-3s2.6-3.1 3.1-4.1q.8-1.7 1.3-2.3t.7-1.4.7-1.2.5-1q.1-1.2 2.6-4.5 1-1.2 1-1.8c0-.4 1.1-1.6 1.5-1.6.2 0 .3 2.2.4 4.8v4.7l1.1-1.8a54 54 0 0 0 3.7-6.4q.7-.6.7-1.2.1-.6.8-1.3t1-1.5a51 51 0 0 1 9.5-9q.4-.5 1-.5.4 0 1-.3l6-2.6c1.2-.5 3.8-1 4-.8.1.1.2 8.5.2 18.5l.1 18.5 4.1-.8 8.2-1.7a52 52 0 0 0 7.2-2l6.8-2.6c3.7-1.4 6.2-2.6 16-7.8 4-2.2 16.4-11 21.9-15.7 3.2-2.7 3.6-3.2 3-3.6-.3-.2-3 1-4.4 2a46 46 0 0 1-6.8 2.5c-5.7 1.8-5.8 1.8-9.4 1.6q-8.4-.5-11.8-1.6c-1.1-.4-4.8-1.2-8.3-1.8-7-1.3-8-1.6-7.7-2.3q.3-.5 2.5-1.6a9 9 0 0 0 2.7-2q.6-.8-.4-.4c-.5.2-3.8.2-7.3.2-9.8-.3-13.6-.2-15 .1l-1.4.3v-14.1c-.2-12.6-.2-14-.7-13.5q-1.4 1.4-1.4 1.8-.1.5-1.6 2.2c-.8 1-1.6 1.9-1.6 2.1l-1.3 1.8c-.7.8-1.4 1.9-1.7 2.4-.2.5-1 1.6-1.8 2.5q-1.3 1.4-1.4 2 0 .4-1 1.3-.8.8-1.4 2c-.3.5-1.1 1.6-1.8 2.3q-1 1.3-1.2 1.9-.1.4-.8 1.2c-.5.5-1.3 1.6-1.7 2.4-.5.9-1.1 1.9-1.5 2.2q-.6.6-.7 1 0 .6-.8 1.6l-1.4 2-1.2 1.8c-.4.4-1.3 2-2.1 3.7l-1.7 3-.1-5.8c0-3.1-.1-6-.3-6.3q-.2-.9-.2 0l-.7 1.4q-.6.8-.6 1.2t-.6 1q-.7.7-.7 1.2t-.9 1.5q-.8 1-.9 1.6 0 .5-.9 1.3t-.9 1.5-.6 1l-1.8 2.5-2.2 2.9q-1 1-1.6 1.9c-1.2 1.8-1.5 1-1.5-4.9 0-3-.2-5.8-.4-6.2l-.8-2.6-.6-2c-.4-1-4.8-5.7-5.1-5.4-.2.1 1.2 3.4 2.6 6a49 49 0 0 1-1.5 22.4c0 .6-.5 2.6-.9 4.3l-1.3 6.4-.3 1q-.1.9-.5 1-.3.1-.4.7 0 .7-.5 1.4c-.3.3-.5 1-.5 1.2q0 .6-.6 1-.5.6-.5 1.1c0 .3-.6 1.2-1.3 1.9s-1.9 2-2.5 3l-2.9 3.6c-1 1-2 2.4-2.5 3s-1.5 2-2.4 3c-.8.8-2 2.3-2.6 3.2q-1.2 1.6-2 1.6-1 .2-1.3-1.7l-.7-5.4-.3-5.1c-.2-2.8 1.2-6.6 3.3-8.7s2.2-2.1 5-4.4c2.9-2.4 4.3-3.8 5.4-5.3l1.5-2q.8-.8.8-1.2l.4-1.2c2.7-5 3-6.3 3-11.6a44 44 0 0 0-1.4-12.5l-.2-.6q-.3-.4-.5-1.8c-.4-2.7-.5-2.9-1-2.9q-.5 0-.8 1.5-.2 1.3-.6 1.7c-.2.3-.4 0-1-2-.3-1.5-1.5-4.3-1.8-4.7q-.5-.4-.5-1t-.7-1.2l-1-1.4c0-.4-.5-1.3-1-1.9l-.8-1.6q-.1-.5-.8-1.3-.7-.7-.7-1.2t-.7-1.2l-1-1.4q-.2-.8-.6-1.3l-2.7-4.5c-.3-.6-.8-1.8-1-2.7q-.1-1.4-.5-1.7l-.1-.5c.2-.4-1-2.3-1.2-2s-.8 2.8-1 4.8q-.4 3-1.3 1.9l-.3-1.3c0-.4-.4-1.8-1-3.2-.4-1.4-1-3.6-1.2-4.9a9 9 0 0 0-.7-2.6q-.3-.4-.3-1t-.4-1.3a40 40 0 0 1-2-5.5 19 19 0 0 1-1.6-4.2c-.9-3.6-1.1-4.4-1.4-4.4s-.3 4.7-.3 10.5a85 85 0 0 1-1 18.9l-.4 3-.4 3c0 1.6-.2 3-.3 3.1l-.6 5.8c0 .8-.7.6-1.2-.4q-.8-1.4-1.4 1l-.9 3.3c-.4 1-.7 2.7-.9 3.7a20 20 0 0 1-1.1 6l-.7 3.6-.4 2.3-.3 3a38 38 0 0 0-.4 11.6c.6 5 1 7 1.5 7.5q.5.5.5 1c0 1.5 4.8 7.2 6.3 7.3 1.4.1 1.5.2 2 .6q.5.3.8.2.2-.1 1.2.6.8.6 1.4.7.4 0 1.2.9.9.9 1.6 1c1 .1 1.9 2 2.2 4.6l.4 2.5c.5 3.1 1 12 .7 12.8q-.3.7-.4 1.7a101 101 0 0 1-3 11.1c-.2.5-1 3-1.6 5.8l-1 4.1c-38.5-42.6-62-99-62-161.1 0-87 46.3-163.2 115.6-205.3-.4 56.4.1 100.5-.3 160.4 0 1.1 0 1.2-1 .8l-2.1-.5-1.4-.2c-.4-.3-1.8-.4-2.7-.4q-.5 0-.3 1c.1.8 0 .8-1.5.6l-4.2-.5c-.3-.4-2 .1-2.4.7s-2.4.8-10 .9q-1.3 0-1.4.3c0 .2 1.1 1.5 2.5 3 3 3 3.3 3.9 2.1 5-.9 1-.9 1 1.8 3.8 1.4 1.5 1.8 2.5.8 2.2-.8-.2-1 .8-.4 1.7l1.5 2c1.2 1.2 1.3 1.7.3 2.5-.7.7-.6.7 1.1 2.7 2 2.1 2.1 2.7 1.2 3.2-.5.3-.4.5.8 1.8a8 8 0 0 0 2 1.7q.6.3.5.7c-.2.7.5 1.2 5.3 3.5.9.4 1 .6.9 1.4v1q.4 0 1 .7l1.2.7 2.4.6q1.6.4 2 .3c.3-14 0-24.9.3-39.7q0-.3.6-.3t1-.6c.5-.6.6-.6 1.3-.2l1.2.4 1.2.4q.8.4 2.4 1c1.6.8 1.8.8 2.4.3q1.2-1 2-.2.1.3.7.3.6.1 1.8 1c1.2.7 1.4.8 1.5.3.2-.7 1.3-.7 1.9 0q.3.5.7.4t.7.5q.5.6 1 .7t1.2 1q.8.7 1.4.8.7 0 1.3.7.5.8 1.8.5 1.3-.2 1.6.6.5.7.8.7c.4-56.8.3-100.2.3-161.4-7.2 1-14.8 1.2-21 1.7-2.9.2-3 .2-2.3-.4 2.7-3.8 3.2-8.7 3.3-11.7l.5-3.8A239 239 0 0 1 250 10m10 21.8c-2 8.5-6.3 14.7-9 23-1.7 8.7-6 13.7-10.8 20.7-4.5-.7-9.5-.4-13.3-1.3q-9.7-2-19.3-3.4-.3.1-.4 1.4c0 1.3 1.7 4.4 3.8 7 7.6 13 15.8 26.7 21.4 41.2 1.3 3.3 1.4 5.7 1.6 9.2a27 27 0 0 1 5.2 4c-.8.2-13-2.3-14.8-3-7-2.4-14.6-4.9-20.6-9.3-2.3-1.7-4-2.5-2 .2 1.5 2.3 7.5 7.3 13.7 11.5 8.5 5.6 15.8 13.7 23.6 18.5 2.3 1.4 7.8 3 10 3 3.9 1.1 6.2 2.5 10 4.4q0 2.7-.9 5c-4.7.5-8.4.4-13.4.4 2.6 1.4 5.7 2.6 7.8 4.7l2.2 2c1.6 2-3 3.9-3.8 4.3-5 2.9-9.8 5.8-9.5 6 2.4-.1 4.4-.9 7-1.1-11.7 8.5-25 30.4-36.4 36.1 1.3-9.5 5-20 5-30.3-.3-4.8-.2-4.8-.5-3.4l-1.4 6.8a80 80 0 0 1-16.8 38.2c-5 5.7-5 5.7-5.5 4.8l-.6-1c-.6 0-2.7 1.4-4.3 2.7l-1.7 1.5-.7-.8c-.8-1-1.2-1-3.6.4-4 2.2-10.4 8.5-12.4 12q-1 2.3-4 1c-1.2-.5-1.3-.6-1-2a29 29 0 0 1 2.3-8.7q.4-.5.6-1.8c.1-.6.5-2 .9-2.8 1-2.6 1.9-5.1 2.1-6.5a148.4 148.4 0 0 0 5.7-13.7l.7-1.5 3-.3c3.4-.3 6.7-1 8.8-2l3-1.4q3.6-1.4 7.9-5.1c2.4-2.1 2.6-2.3 2-3-.8-.9-.6-1.2 1.6-2.7 2.5-1.8 3.4-2.7 3.2-3.6q0-1.2 2.8-5.2 1.5-2 1.4-2.8c-.2-.4.1-1.6.6-2.6.7-1.7.7-1.9.2-2.3-.6-.4-.6-.6.1-3.2.4-1.6.9-3 1-3q0-.3-.7-1c-.7-.4-.8-.8-.8-3.1q0-2.8-.7-3.4c-.5-.6-.5-1-.4-2.7.3-2.6-.3-4.7-1.3-4.4-.6.2-.7 0-.7-1.5 0-2.6-1-5.5-1.8-5.5q-.7.1-1.2-2c-.3-1-.6-2.4-.6-3q0-1.8-1-.6c-1.1 1.3-2.6.1-2.6-2 0-1.3-.1-1.7-.8-2s-1-1-1.7-5.7c-.7-5-.5-5-3.5-2a27 27 0 0 0-3.2 3.9q-1 1.8-2.3 1.1-.5-.4-2 1.5-1.3 1.8-2.1 1.8t-2.8 2.2c-1.8 2.1-2 2.2-2.8 1.9s-1-.3-2.7 1.3c-1 .9-2.4 2.6-3.2 3.7-1.1 1.7-1.5 2-2.2 1.8s-1 .1-2 1.8c-.7 1-1.4 2.3-1.6 2.8q-.8 2.4-2 2.5-1-.1-1.3 1.3l-1.3 2.5c-.4.6-1 1.9-1.3 2.8q-.4 1.8-1.3 2-.7.2-1.2 2.2l-.6 2.7c0 2.4-.2 2.6-.6 2.6q-1.4 0-1.3 4t-1.2 4c-.6 0 1.5 8.5 2.6 10.8 1.9 3.6 5.5 8 7.5 9q1 .7 1.6 1.5t1.1 1q.6 0 1.1.6.7.7 1.7 1 1 .1 1.2.5.3.3 1 .4.6 0 .8.2c.3.5-2.2 7.2-4 10.5a36 36 0 0 0-2.5 5.6l-.8 2.2-1 2.2-1.2 3.5-1.2 3.9c-.5 1.3-1 3-1.1 3.8q-.3 1.4-1 2c-.6.6-.8.6-1.8.2s-1-.6-.9-1.5c.2-.6.5-1.8 1-2.6 1.5-3.6 2.5-7.3 2.4-9.9 0-2.2-1.2-5.4-2-5.4-.5 0-.5 0-1.3-3-.5-1.7-.7-2-1.6-2.1q-.9.1-1.5-1.7-.5-1.5-1-1.7c-.8 10.4-.4 16.5-.4 29.4l1-.2c.9-.2 1.3 0 2.4.9 1.4 1.3 1.6 2.1.7 4.2-.9 2-2.3 6.5-2 6.7.1.2-1.6 3.2-2 3.4-.4 0-.5-2-.5-7.2 0-4-.1-7.2-.3-7-.7 1-2.6 2.3-3.1 2.1q-.5 0-.5.2-.1.4-.8.4t-1.4.6l-1.1.6q-.5 0-1 .4c-.7.4-4.7.8-8 .8-2.8 0-3 0-3-.7q.3-1.4-3.2-1.6-3.8-.2-3.3-1.5.4-.7-1-1-1.3-.5-1.5-.4a2739 2739 0 0 0-.3 73.3c.4 0 1.6-2 1.3-2.3l.6-1c.4-.3.7-1 .7-1.2l.4-1.2c1.8-3.5 3.2-7.8 3.4-10.3q0-1.8.6-2c.6 0 2.1 1.6 2.1 2.4q0 .5.6.5.4 0 .3-.3 0-.3.3-.8.6-.4 1.3-1.9l1.7-3.1q.8-1.6.7-2.5 0-.7.2-1 .3-.2.3-.8t.5-1.2.6-1l.5-1.3.8-2 1.2-2.5q.7-1.7.5-2 0-.4.2-.6.4-.4.4-1t.7-1.8c.4-.5.8-1.4.8-1.8q0-.8.6-1.5a68.6 68.6 0 0 1 4.2-9.3l.9-2.2q0-.5.8-1.3l.7-1 .1-1q.3-1 .5.1l.2 5.9c0 2.7.1 4.8.3 4.7a30 30 0 0 0 3-7l1.7-4 1.8-4.5 1.4-3.3q.5-.7.4-1.2t.2-.7.4-1c0-.8.4-.8 2 0 1.3.7 1.5 1 2 2.6q.5 2 2 3.7l1.5 2.1c0 .2-1.8 2.7-4 5.5s-4.7 6-5.4 7a34 34 0 0 1-7.1 7.2q-.3-.1-.4-2.5c0-2.4 0-2.5-.6-2q-.5.6-.7 1.9c0 .7-.4 1.6-.6 1.9l-.8 1.3-.7 1.2q-.5.4-.5 1t-.6 1.1-.5 1.3c0 .4-.3 1.4-.7 2.2-.9 1.6-.9 1.6-.4 1.6l.9-1.3q.5-1 1-1.4l1.6-2.3q1.8-2.8 2.6-3c.1 0 .2 2 .1 4.6 0 2.4.1 4.5.2 4.5l3.3-3.5 6.5-7.3c1.9-2.1 5-5.8 6.8-8.2s4-5.2 4.9-6.1l1.5-1.7 2 1.3c1 .8 2 1.4 2.2 1.4l1.9 1c1.3 1 2 1.1 3.6 1.1 1.2 0 2.3.2 2.5.4.4.5 6.6 1.7 8.4 1.7.7 0 2.3.7 3.4 1 1.1.2 2.2.3 2.4.2s1-.5 2-.2c2 .6 5.8.7 5.8.2q.1-.4.8-.4t.5-.6a52 52 0 0 1-1-37.7q.1-.5-3.3-.3H205c17.2-11 35.1-43.1 52.5-51.6 0-.1 6.3 3.6-4 12.5 1.4 0 6-1.6 9-1 2.9.7-6 27.7 4 3.2 2.2-4.2 4.3-7.1 8.7-12.1.7-.7 3.5 1.4 4.4 3.2q.5 1.4 2.4 2.5c3.5 2 6 5 9.4 11.3 3 5.4 10.9 18.4 12 19.6.5.6.5.4-1.3-7.5-1.3-6-1.9-11.3-1.2-11.7 2.8.3 3.7 2.5 4.2 4.8.9 3.9 2.5 7.5 3 11.4a84 84 0 0 0 4.5 16.5c.2-7-.1-15 1.5-21 1-3.5 2-3.1 5.1 2 1.5 2.5 2.4 3.6 3.4 4.2 1.7 1 2.1.7 4-2.5 6.6-8.4 14.1-11.7 22.9-19 3.1-2.7 6.8-6.5 6.8-7.2 0-.3-.4-2-1-3.7l-.8-3.2 5.4-.5c6-.4 9.7-1 13.7-2.5 11.3-4.8 26-6 35.8-10.7l5.3-2.3q1.3-.1.4-1.6a60 60 0 0 1-13.5-16.7c-4-8.5-10.2-12.4-14.5-19.7 2.4-2.7 6.5-4.1 8.4-7.3-1.4-4-5.2-4.7-6.5-8.8-.4-1.5-.5-1.2 2.8-11.8 2.1-6.6 2.2-7.5.8-11.9l-1.2-3.7c-6.7-2.3-14.6-3.1-21.5-6.4-4.4-9-8.4-20.4-11-31.6-1.7-7.2-1.9-7.3-6.8-5.8q-9 2.3-18 3.2c-3.3-1.7-3.7-4.6-5.9-7.1l-3.3-.4c-2.5-.2-3-.4-4.6-1.4q-1.7-1.2-2.3-1.3c-.6 0-6.7 3.2-8.4 4.4q-7 4.1-14 7.9c-8.5-4.8-11.7-13.7-20-9.2-3.6 2-4.3 2-5.8 0-.5-.6-2.6-2.7-4.8-4.6-2.2-1.7-4-5-5-1.5m-104.7-.7c-.9 0-.7 1.7-.7 10.9v11.4q.3.3 1.1.2c.6 0 3.5.4 6.6 1 8.7 1 19.8 4.7 25.1 6.2 5.4 1.6-5.2-8.6-8-10.8-10.2-7.1-9.6-14.7-24-18.9m183.7 191a32 32 0 0 1 17.4 19.9c2.7 6.9 5.1 20.8 11.7 23.9.7.2 2.5.4 4.4.4q5.2 0 7.8 2.1c.6.5 2 1.2 2.9 1.5 2.1.8 2.5.8 4.1.3q5.6-2.1 11.5-12.3c3.4-5.9 4.5-7.3 6.4-8.1 1.7-.8 4.4-1 5.5-.3q1.2.8 0-.7c-1.5-2-4.9-2.3-13.9-.8-2.2.4-6.4.9-9.5 1.1-10.4 1.6-19-7.2-24.4-14a65 65 0 0 0-6.2-6.5c-2.3-2.8-5-3.5-8.3-4.6a33 33 0 0 0-9.4-2m63.8 32.1c3 0 4.8-.4 8.2-2-1.9-3.5-8-.9-8.2 2m-249.1 103-3.4.3c-1.8.1-3.6.4-4 .6-.5.3-.3.5 1.7 1.4l5.4 2.4q.2-.2.3-2.3zm-29.4 6.6c.4.2.4 7 .4 47 0 24-.2 41.2-.2 43.8q-23.5-14.5-43-33.8a81 81 0 0 1 6.6-16l2-4.1.5-1c-.2 0 1.4-3.3 2.3-5l3.7-7.3q.7-1 .4-1l.7-1.2c.5-.6 1.3-2 1.8-3.2l1.3-2.2q.3-.3.2-.6c-.1-.2.6-1.9 1.6-3.8 1.8-3.5 2.7-4.5 5.7-5.9q1.3-.6 1.5-1 .1-.3 1.3-1 1.4-.6 2-1.2.7-.4.9-.3t.6 0c.6-.5 9-2.4 9.7-2.2m-33.4 20.7v.6q-.2 1-.6 1.6-.4.3-.1.7 0 .3-1.7 2.2c-1.1 1.1-2.1 2.6-2.4 3.4l-1 2.4q-.6.8-.7 1.3l-.8 1.4c-1.9 2.8-3.5 5.4-4.2 6.9q-.5 1-.9 1.2-.4 0 0-.5l.2-.8a34 34 0 0 1 2.2-7l1.2-3q.7-.9.7-1.3a18 18 0 0 1 2.6-3.2z"/>
</svg>
